<svg width="164" height="40" viewBox="0 0 164 40" fill="none" xmlns="http://www.w3.org/2000/svg">
<path d="M60.7971 36.6197L53.1817 12.9578H57.1089L61.7191 27.7634C61.8557 28.124 61.9809 28.5521 62.0948 29.0479C62.2086 29.5211 62.311 30.0056 62.4021 30.5014C62.4932 30.9972 62.5729 31.4592 62.6412 31.8873C62.7322 32.3155 62.8119 32.6648 62.8802 32.9352L61.8899 32.9014C62.2314 31.707 62.4932 30.7831 62.6753 30.1296C62.8802 29.4761 63.0396 28.9803 63.1534 28.6423C63.2672 28.2817 63.3697 27.9775 63.4608 27.7296L67.7636 17.0479H71.0762L75.2424 27.7296C75.4701 28.2704 75.6636 28.8113 75.823 29.3521C76.0051 29.8704 76.1645 30.4 76.3011 30.9408C76.4377 31.4592 76.5857 32.0113 76.745 32.5972L75.8571 32.8338C75.971 32.2254 76.0506 31.7521 76.0962 31.4141C76.1645 31.0535 76.2214 30.7606 76.2669 30.5352C76.3125 30.3099 76.358 30.0958 76.4035 29.893C76.4491 29.6676 76.5173 29.3859 76.6084 29.0479C76.7222 28.7099 76.8702 28.2479 77.0524 27.662L81.5943 12.9578H85.5557L77.9403 36.6197H75.379L69.0613 21.8141L69.3687 21.9493L63.29 36.6197H60.7971Z" fill="black"/>
<path d="M94.8684 36.9577C93.3886 36.9577 92.034 36.5521 90.8046 35.7408C89.598 34.9296 88.6304 33.8254 87.9019 32.4282C87.1733 31.031 86.8091 29.4535 86.8091 27.6958C86.8091 25.9155 87.1733 24.338 87.9019 22.9634C88.6532 21.5662 89.6549 20.4732 90.907 19.6845C92.182 18.8958 93.6049 18.5014 95.1758 18.5014C96.1092 18.5014 96.9629 18.6366 97.737 18.9071C98.5111 19.1775 99.1827 19.5606 99.7518 20.0563C100.344 20.5296 100.822 21.0817 101.186 21.7127C101.573 22.3437 101.812 23.0197 101.903 23.7409L101.118 23.4704V18.8732H104.669V36.6197H101.118V32.3944L101.937 32.1577C101.801 32.7662 101.516 33.3634 101.084 33.9493C100.674 34.5127 100.139 35.0197 99.4786 35.4704C98.8412 35.9211 98.124 36.2817 97.3272 36.5521C96.5531 36.8225 95.7335 36.9577 94.8684 36.9577ZM95.7905 33.7465C96.8605 33.7465 97.8053 33.4873 98.6249 32.969C99.4445 32.4507 100.082 31.7408 100.537 30.8394C101.015 29.9155 101.254 28.8676 101.254 27.6958C101.254 26.5465 101.015 25.5211 100.537 24.6197C100.082 23.7183 99.4445 23.0085 98.6249 22.4902C97.8053 21.9718 96.8605 21.7127 95.7905 21.7127C94.7432 21.7127 93.8098 21.9718 92.9902 22.4902C92.1934 23.0085 91.5559 23.7183 91.0778 24.6197C90.6225 25.5211 90.3948 26.5465 90.3948 27.6958C90.3948 28.8676 90.6225 29.9155 91.0778 30.8394C91.5559 31.7408 92.1934 32.4507 92.9902 32.969C93.8098 33.4873 94.7432 33.7465 95.7905 33.7465Z" fill="black"/>
<path d="M109.649 36.6197V11.6056H113.166V36.6197H109.649Z" fill="black"/>
<path d="M118.22 36.6197V11.6056H121.737V36.6197H118.22Z" fill="black"/>
<path d="M134.755 36.9577C132.911 36.9577 131.272 36.5746 129.838 35.8085C128.426 35.0197 127.311 33.9493 126.491 32.5972C125.694 31.2451 125.296 29.6901 125.296 27.9324C125.296 26.5352 125.524 25.262 125.979 24.1127C126.434 22.9634 127.06 21.9718 127.857 21.138C128.677 20.2817 129.644 19.6282 130.76 19.1775C131.898 18.7042 133.128 18.4676 134.448 18.4676C135.609 18.4676 136.691 18.693 137.692 19.1437C138.694 19.5718 139.559 20.169 140.288 20.9352C141.039 21.7014 141.608 22.6141 141.995 23.6732C142.405 24.7099 142.598 25.8479 142.576 27.0873L142.542 28.5747H127.891L127.106 25.8028H139.502L138.99 26.3775V25.5662C138.922 24.8225 138.671 24.1578 138.239 23.5718C137.806 22.9859 137.26 22.524 136.599 22.1859C135.939 21.8479 135.222 21.6789 134.448 21.6789C133.219 21.6789 132.183 21.9155 131.34 22.3887C130.498 22.8394 129.861 23.5155 129.428 24.4169C128.995 25.2958 128.779 26.3887 128.779 27.6958C128.779 28.9352 129.041 30.0169 129.565 30.9408C130.088 31.8423 130.828 32.5409 131.784 33.0366C132.741 33.5324 133.845 33.7803 135.097 33.7803C135.985 33.7803 136.804 33.6338 137.556 33.3409C138.33 33.0479 139.161 32.5183 140.049 31.7521L141.824 34.2197C141.278 34.7606 140.606 35.2338 139.81 35.6394C139.035 36.0451 138.204 36.3718 137.317 36.6197C136.451 36.8451 135.598 36.9577 134.755 36.9577Z" fill="black"/>
<path d="M153.877 36.9577C152.238 36.9577 150.769 36.5634 149.472 35.7747C148.197 34.9634 147.184 33.8704 146.432 32.4958C145.681 31.0986 145.306 29.5099 145.306 27.7296C145.306 25.9493 145.67 24.3718 146.398 22.9972C147.15 21.6 148.163 20.5071 149.438 19.7183C150.713 18.9071 152.158 18.5014 153.775 18.5014C154.663 18.5014 155.516 18.6479 156.336 18.9409C157.178 19.2113 157.93 19.5944 158.59 20.0902C159.25 20.5634 159.762 21.093 160.127 21.6789C160.514 22.2423 160.707 22.8169 160.707 23.4028L159.683 23.4704V11.6056H163.2V36.6197H159.683V32.3944H160.366C160.366 32.9352 160.183 33.4761 159.819 34.0169C159.455 34.5352 158.965 35.0197 158.351 35.4704C157.759 35.9211 157.064 36.2817 156.268 36.5521C155.494 36.8225 154.697 36.9577 153.877 36.9577ZM154.355 33.9493C155.425 33.9493 156.37 33.6789 157.19 33.138C158.009 32.5972 158.647 31.8648 159.102 30.9408C159.58 29.9944 159.819 28.924 159.819 27.7296C159.819 26.5352 159.58 25.4761 159.102 24.5521C158.647 23.6056 158.009 22.862 157.19 22.3211C156.37 21.7803 155.425 21.5099 154.355 21.5099C153.285 21.5099 152.34 21.7803 151.521 22.3211C150.701 22.862 150.052 23.6056 149.574 24.5521C149.119 25.4761 148.891 26.5352 148.891 27.7296C148.891 28.924 149.119 29.9944 149.574 30.9408C150.052 31.8648 150.701 32.5972 151.521 33.138C152.34 33.6789 153.285 33.9493 154.355 33.9493Z" fill="black"/>
<path d="M31.5986 19.7755H36.2581V14.1097C36.2581 13.5001 35.7561 12.9964 35.1334 12.9964H3.36729C2.75143 12.9964 2.24255 13.4934 2.24255 14.1097V36.6668C2.24255 37.2764 2.74459 37.7802 3.36729 37.7802H35.1334C35.7492 37.7802 36.2581 37.2832 36.2581 36.6668V31.001H31.5986C28.4589 31.001 25.9282 28.5028 25.9282 25.3882C25.9282 22.2737 28.4522 19.7755 31.5986 19.7755Z" fill="white"/>
<path d="M34.0087 19.7822H31.5986C28.4521 19.7822 25.9282 22.2805 25.9282 25.395C25.9282 28.5095 28.4521 31.0078 31.5986 31.0078H34.0087V35.5669H4.4853V23.281H6.50706C7.12292 23.281 7.6318 22.7841 7.6318 22.1677C7.6318 21.5581 7.12302 21.0544 6.50706 21.0544H4.49203V18.8344H9.88118C10.497 18.8344 11.0059 18.3375 11.0059 17.7211C11.0059 17.1115 10.5039 16.6078 9.88118 16.6078H4.49203V15.2162H34.0155V19.7819L34.0087 19.7822Z" fill="#0061FF"/>
<path d="M28.1643 25.3883C28.1643 27.2769 29.6773 28.7745 31.5853 28.7745H38.1527V22.0021H31.6455C29.7376 22.0021 28.1643 23.4998 28.1643 25.3883Z" fill="#F8AB39"/>
<path d="M28.1174 10.7766L19.8697 2.66559L11.5616 10.7766H28.1174Z" fill="#0061FF"/>
<path d="M39.2843 19.7755H38.501V14.1097C38.501 12.2742 36.988 10.7766 35.1336 10.7766H31.3177L20.653 0.332964C20.2045 -0.110988 19.5282 -0.110988 19.0797 0.332964L8.41522 10.7766H3.36739C1.51298 10.7766 0 12.2742 0 14.1097V36.6668C0 38.5024 1.51298 40 3.36739 40H35.1335C36.9879 40 38.5009 38.5024 38.5009 36.6668V31.001H39.2842C39.9 31.001 40.4089 30.5041 40.4089 29.8877V20.8887C40.4089 20.2791 39.9069 19.7755 39.2843 19.7755ZM31.5986 31.001H36.2581V36.6668C36.2581 37.2764 35.7561 37.7802 35.1334 37.7802H3.36729C2.75143 37.7802 2.24255 37.2832 2.24255 36.6668V14.1097C2.24255 13.5001 2.74459 12.9964 3.36729 12.9964H35.1334C35.7492 12.9964 36.2581 13.4934 36.2581 14.1097V19.7755H31.5986C28.4589 19.7755 25.9282 22.2737 25.9282 25.3882C25.9283 28.5028 28.4522 31.001 31.5986 31.001ZM28.1174 10.7766H11.5616L19.8697 2.66559L28.1174 10.7766ZM38.1663 28.7812H31.5987C29.6908 28.7812 28.1778 27.2836 28.1778 25.395C28.1778 23.5064 29.6908 22.0088 31.5987 22.0088H38.1663V28.7812Z" fill="black"/>
<path d="M29.6907 25.3883C29.6907 25.9979 30.1927 26.5016 30.8154 26.5016H32.2749C32.8907 26.5016 33.3996 26.0047 33.3996 25.3883C33.3996 24.7787 32.8976 24.275 32.2749 24.275H30.8154C30.1928 24.2817 29.6907 24.7786 29.6907 25.3883Z" fill="black"/>
<path d="M12.2378 31.942H7.63853C7.02268 31.942 6.51379 32.439 6.51379 33.0554C6.51379 33.665 7.01584 34.1687 7.63853 34.1687H12.2378C12.8536 34.1687 13.3625 33.6717 13.3625 33.0554C13.3558 32.4456 12.8536 31.942 12.2378 31.942Z" fill="black"/>
</svg>
